<?xml version="1.0" standalone="no"?>
<!DOCTYPE svg PUBLIC "-//W3C//DTD SVG 20010904//EN"
 "http://www.w3.org/TR/2001/REC-SVG-20010904/DTD/svg10.dtd">
<svg version="1.0" xmlns="http://www.w3.org/2000/svg"
 width="500.000000pt" height="500.000000pt" viewBox="0 0 500.000000 500.000000"
 preserveAspectRatio="xMidYMid meet">
<metadata>
Created by potrace 1.14, written by Peter Selinger 2001-2017
</metadata>
<g transform="translate(0.000000,500.000000) scale(0.100000,-0.100000)"
fill="#000000" stroke="none">
<path d="M1023 4266 c-3 -4 -5 -142 -5 -305 1 -236 4 -308 17 -356 26 -99 75
-184 145 -256 l65 -66 -62 -61 c-59 -58 -137 -189 -147 -247 -2 -11 -7 -38
-10 -60 -6 -33 -10 -447 -7 -592 l1 -32 493 2 492 2 3 131 3 132 -386 0 c-212
0 -388 2 -391 5 -10 10 -4 309 8 354 24 99 97 186 196 235 42 21 62 23 202 25
85 1 163 2 173 3 15 0 17 12 17 105 l0 105 -165 0 c-161 0 -167 1 -228 29 -74
34 -138 96 -171 165 -34 71 -39 112 -37 332 l1 91 381 -1 c209 -1 385 2 390 5
6 3 8 62 7 135 l-3 129 -488 0 c-271 0 -491 -4 -494 -9z"/>
<path d="M2121 4270 c-5 -3 -8 -63 -7 -134 l1 -129 790 -1 789 -1 -1 -240 c0
-165 -5 -254 -14 -285 -7 -25 -13 -48 -13 -51 -1 -3 -12 -28 -26 -55 -31 -61
-131 -162 -190 -191 -95 -48 -120 -51 -457 -51 l-318 1 -2 -131 c-3 -117 -1
-131 15 -135 9 -3 181 -4 382 -3 l365 1 55 -55 c132 -130 199 -285 201 -461
l0 -56 129 -1 c100 -1 131 2 140 13 14 16 18 174 7 245 -23 149 -109 296 -234
400 -29 24 -53 47 -53 50 0 3 33 39 73 80 61 64 145 185 154 224 1 6 11 36 22
67 11 30 23 77 27 105 9 65 11 773 2 787 -5 9 -241 12 -919 12 -501 0 -914 -2
-918 -5z"/>
<path d="M2121 3710 c-4 -3 -7 -180 -6 -395 1 -341 4 -399 20 -460 58 -227
204 -398 419 -495 37 -16 66 -28 66 -26 0 2 21 -3 48 -11 38 -13 113 -16 392
-18 l345 -3 0 128 c0 71 -3 131 -6 135 -4 3 -148 6 -322 6 -338 1 -363 3 -455
54 -116 64 -194 168 -229 307 -3 13 -6 133 -7 268 l-1 245 495 1 c272 1 498 2
503 3 4 1 7 61 7 134 l0 132 -631 0 c-347 0 -634 -2 -638 -5z"/>
<path d="M1495 2917 c-76 -25 -120 -119 -113 -242 l3 -60 237 0 237 0 -3 90
c-3 107 -25 160 -83 196 -33 21 -51 24 -143 25 -58 1 -118 -3 -135 -9z"/>
<path d="M1895 2050 c-131 -7 -178 -27 -216 -94 -24 -41 -24 -44 -24 -336 l0
-295 27 -46 c28 -48 67 -72 143 -87 60 -12 413 -6 463 7 55 15 109 64 127 116
22 62 20 559 -2 615 -20 50 -70 96 -121 109 -46 13 -246 18 -397 11z m297
-188 c20 -20 21 -31 21 -229 0 -115 -3 -220 -6 -234 -10 -38 -39 -45 -178 -44
-107 1 -129 4 -145 19 -16 16 -18 41 -19 230 0 116 3 223 8 239 6 18 18 29 35
33 15 3 31 7 35 7 4 1 57 2 118 1 98 -1 113 -3 131 -22z"/>
<path d="M3565 2049 c-127 -8 -170 -32 -206 -114 -18 -41 -20 -68 -21 -298 -1
-272 2 -301 38 -363 44 -77 101 -90 390 -88 217 2 259 12 308 76 38 50 44 106
44 368 -1 303 -13 351 -101 397 -44 22 -272 34 -452 22z m316 -186 c19 -19 20
-33 20 -234 1 -220 -6 -268 -38 -270 -55 -4 -251 -4 -266 -1 -38 9 -44 47 -42
262 1 113 3 213 4 223 2 31 51 42 180 41 108 -1 125 -3 142 -21z"/>
<path d="M417 2043 c-1 -1 -42 -3 -90 -4 -87 -3 -150 -21 -181 -51 -25 -26
-48 -68 -54 -100 -7 -40 -6 -525 1 -553 3 -11 6 -25 6 -32 2 -24 57 -77 100
-96 38 -16 66 -20 161 -19 101 1 221 7 325 17 17 1 39 3 51 4 19 1 21 7 21 82
l0 80 -141 -6 c-273 -13 -265 -13 -292 7 l-24 20 2 225 c3 209 4 226 22 239
16 11 64 14 227 14 l207 0 -1 79 c-1 44 -5 82 -8 85 -5 5 -328 14 -332 9z"/>
<path d="M1186 2043 c-2 -2 -83 -4 -180 -4 l-176 1 0 -420 c0 -366 2 -420 15
-421 8 0 42 0 75 0 33 0 75 0 93 0 l34 1 0 123 0 122 87 3 c75 2 87 1 93 -15
4 -10 33 -66 66 -125 l59 -108 52 -1 c121 -1 168 0 173 5 3 3 -6 24 -19 48
-14 24 -40 70 -58 103 -18 33 -40 70 -48 82 -13 21 -12 23 15 35 86 39 108 94
107 279 0 120 -3 141 -23 182 -36 74 -88 99 -215 104 -55 2 -111 5 -123 7 -13
2 -24 1 -27 -1z m150 -187 c16 -13 19 -27 19 -110 0 -126 2 -125 -172 -126
-73 0 -133 3 -134 8 -1 9 -1 202 0 225 1 15 14 17 134 17 99 0 138 -4 153 -14z"/>
<path d="M2590 2040 l-75 -5 0 -418 0 -417 28 -1 c35 -1 106 -1 155 0 l37 1 0
246 c-1 207 1 243 13 227 7 -10 56 -94 109 -188 53 -93 102 -177 110 -186 7
-9 10 -19 6 -22 -3 -4 -1 -7 5 -7 7 0 12 -6 12 -12 0 -7 8 -23 18 -36 18 -23
54 -27 210 -23 l32 1 0 419 0 419 -27 3 c-16 2 -64 2 -109 -1 l-80 -5 0 -228
c1 -125 -1 -234 -4 -242 -5 -13 -34 33 -146 234 -134 240 -133 239 -178 243
-22 1 -75 1 -116 -2z"/>
<path d="M4569 2043 c-8 -1 -63 -4 -124 -5 -152 -5 -194 -25 -236 -115 -15
-32 -19 -63 -19 -130 0 -140 13 -182 72 -226 49 -36 97 -43 276 -43 137 1 162
-1 163 -14 5 -68 -1 -124 -14 -137 -10 -11 -37 -15 -88 -15 -102 -1 -382 12
-391 18 -9 6 -9 6 -11 -84 -1 -35 0 -68 3 -73 16 -24 510 -41 588 -20 52 15
103 64 119 115 14 47 15 218 1 259 -18 52 -46 84 -94 107 -41 20 -63 23 -211
24 -156 2 -167 3 -183 24 -23 28 -19 108 7 127 14 11 63 14 221 15 l202 0 0
85 c0 81 -1 85 -22 85 -13 1 -73 2 -134 3 -61 1 -117 1 -125 0z"/>
<path d="M1150 917 c-56 -28 -68 -117 -22 -168 24 -27 36 -32 74 -32 46 0 68
7 68 23 0 5 -16 6 -34 3 -19 -3 -46 -3 -59 1 -33 8 -57 60 -47 97 5 16 6 29 2
29 -4 0 7 9 23 20 23 16 39 19 73 15 24 -4 42 -2 42 3 0 24 -79 30 -120 9z"/>
<path d="M2066 923 c-3 -3 -6 -19 -6 -35 0 -25 -3 -28 -25 -22 -40 10 -71 -3
-87 -36 -36 -74 30 -134 118 -106 19 6 21 15 22 100 2 86 -4 116 -22 99z m-18
-85 c7 -7 12 -31 12 -55 0 -42 -1 -43 -34 -43 -35 0 -49 11 -60 47 -13 41 52
81 82 51z"/>
<path d="M2444 921 c-5 -3 -8 -44 -8 -91 2 -112 2 -110 18 -110 10 0 13 10 10
35 -2 30 1 37 19 44 32 12 43 4 61 -40 9 -21 20 -39 26 -39 14 0 13 14 -4 54
-12 30 -12 34 5 44 23 15 26 74 4 92 -16 13 -116 22 -131 11z m113 -35 c22
-34 -1 -60 -53 -61 -24 -1 -34 3 -35 14 -4 41 -3 56 3 62 12 9 78 -2 85 -15z"/>
<path d="M3536 923 c-3 -3 -6 -19 -6 -35 0 -25 -3 -28 -25 -22 -14 3 -36 3
-49 0 -28 -7 -55 -58 -48 -92 5 -26 53 -64 75 -60 7 1 26 6 44 10 l31 7 0 95
c-1 88 -6 113 -22 97z m-13 -81 c4 -1 7 -23 5 -49 -3 -51 -16 -61 -63 -49 -28
7 -39 52 -20 82 12 19 36 24 78 16z"/>
<path d="M1314 862 c-17 -10 -15 -142 2 -142 9 0 14 18 16 56 3 57 7 63 53 80
19 7 19 8 -3 12 -13 2 -29 -1 -37 -8 -8 -7 -14 -7 -17 -1 -1 6 -8 7 -14 3z"/>
<path d="M1429 852 c-34 -28 -31 -88 5 -117 27 -21 52 -24 95 -10 31 10 16 25
-17 16 -17 -5 -37 -3 -54 6 -43 21 -25 39 40 38 57 0 57 0 55 29 -1 15 -10 34
-20 42 -26 19 -77 17 -104 -4z m89 -14 c24 -24 12 -35 -38 -34 -27 0 -50 2
-50 5 0 2 7 13 17 23 18 21 53 24 71 6z"/>
<path d="M1629 863 c-21 -5 -49 -55 -49 -86 0 -32 45 -65 80 -59 14 2 35 3 48
4 21 0 22 4 22 68 0 62 -2 68 -22 74 -25 6 -54 6 -79 -1z m72 -23 c1 -5 2 -21
2 -35 0 -46 -3 -52 -27 -63 -54 -24 -93 58 -44 92 25 18 67 21 69 6z"/>
<path d="M1769 850 c0 -11 -1 -36 -1 -55 0 -68 2 -77 15 -73 7 3 12 23 12 52
0 50 20 76 56 76 22 0 29 -20 29 -82 0 -35 4 -48 13 -46 19 7 20 114 1 133
-19 18 -65 20 -83 3 -11 -10 -14 -10 -18 0 -7 19 -23 14 -24 -8z"/>
<path d="M2160 863 c-27 -11 -40 -31 -40 -63 0 -43 14 -66 47 -77 46 -16 90 2
103 41 23 72 -37 127 -110 99z m73 -31 c35 -31 14 -92 -32 -92 -34 0 -53 20
-53 57 0 45 49 66 85 35z"/>
<path d="M2631 841 c-12 -16 -21 -41 -21 -55 0 -25 33 -65 54 -67 6 0 18 -2
26 -3 22 -5 60 11 60 25 0 7 -7 8 -17 4 -39 -16 -93 1 -93 29 0 8 20 12 61 11
33 -1 62 3 65 7 7 12 -23 65 -41 72 -39 14 -74 6 -94 -23z m86 1 c28 -18 18
-36 -22 -38 -50 -2 -58 2 -45 27 11 19 45 25 67 11z"/>
<path d="M2816 849 c-44 -35 -32 -108 21 -126 35 -11 85 -3 91 16 4 11 0 12
-14 6 -18 -7 -33 -8 -69 -4 -22 3 -37 56 -22 80 15 25 54 35 78 21 13 -8 18
-8 22 3 12 31 -69 34 -107 4z"/>
<path d="M2959 870 c0 -3 -2 -29 -3 -59 -3 -67 19 -101 61 -94 15 3 38 5 51 5
23 0 25 5 23 97 0 24 -3 46 -6 49 -12 12 -23 -22 -21 -65 2 -43 -4 -55 -35
-66 -29 -10 -42 9 -44 62 -1 29 -7 57 -13 63 -7 7 -12 10 -13 8z"/>
<path d="M3151 853 c-42 -34 -31 -114 18 -131 38 -13 91 -3 91 17 0 6 -9 7
-22 2 -27 -10 -64 -3 -79 15 -17 21 -7 26 61 28 60 1 61 2 55 26 -8 34 -41 60
-75 60 -15 0 -37 -8 -49 -17z m89 -22 c15 -28 15 -28 -40 -28 -53 0 -60 6 -34
31 21 22 61 20 74 -3z"/>
<path d="M3308 858 c-10 -28 -3 -131 10 -136 12 -4 16 24 13 74 -2 26 26 57
45 50 8 -3 14 1 14 9 0 9 -10 15 -25 15 -14 0 -25 -5 -25 -11 0 -8 -4 -8 -14
0 -10 9 -15 8 -18 -1z"/>
<path d="M3612 850 c-27 -25 -29 -79 -4 -108 9 -12 32 -23 51 -26 48 -7 92 36
86 85 -8 64 -86 92 -133 49z m92 -19 c21 -17 17 -70 -6 -82 -21 -11 -49 -11
-67 0 -17 11 -17 67 0 87 14 17 50 14 73 -5z"/>
<path d="M3794 862 c-19 -12 -26 -48 -12 -60 7 -6 26 -14 41 -17 32 -8 47 -33
27 -45 -7 -4 -26 -4 -43 1 -33 9 -47 5 -31 -10 17 -17 72 -19 93 -4 36 24 26
51 -25 73 -56 25 -54 46 5 43 44 -2 56 11 19 21 -31 8 -61 7 -74 -2z"/>
</g>
</svg>
